<svg width="71" height="71" viewBox="0 0 71 71" fill="none" xmlns="http://www.w3.org/2000/svg">
<path fill-rule="evenodd" clip-rule="evenodd" d="M35.7452 71C46.89 71 56.8269 70.1472 63.2874 63.2486C68.1138 58.095 71 49.5671 71 35.5C71 21.4329 68.1138 12.905 63.2874 7.75137C56.8269 0.852837 46.89 0 35.7452 0C24.7769 0 14.8228 1.24126 8.22094 7.97213C3.10331 13.1898 0 21.7061 0 35.5C0 49.2939 3.10331 57.8102 8.22094 63.0279C14.8228 69.7587 24.7769 71 35.7452 71Z" fill="url(#paint0_linear)"/>
<path d="M28.8257 40.4767C27.6471 40.7043 25.7085 40.894 23.6334 40.3281C22.5918 40.044 21.022 38.8187 19.9044 37.8564C19.5187 37.5243 18.8972 37.8999 19.0289 38.3915L20.6704 44.5174C18.919 46.7168 18.1977 49.6895 18.9811 52.6134C20.2926 57.508 25.3237 60.4127 30.2184 59.1012L42.7975 55.7307C47.6922 54.4191 50.5969 49.388 49.2854 44.4934C47.9739 39.5987 42.942 36.6942 38.0473 38.0057L28.8257 40.4767Z" fill="white"/>
<path d="M40.2322 11.8684C45.1268 10.5569 50.1579 13.4616 51.4694 18.3562C52.253 21.2804 51.5317 24.2533 49.7803 26.4526L51.4216 32.5781C51.5533 33.0698 50.9319 33.4454 50.5462 33.1133C49.4285 32.151 47.8587 30.9257 46.8172 30.6416C44.7416 30.0755 42.8026 30.2654 41.624 30.4932L32.4025 32.9641C27.5078 34.2756 22.4767 31.3709 21.1652 26.4762C19.8537 21.5816 22.7584 16.5505 27.653 15.2389L40.2322 11.8684Z" fill="white"/>
<defs>
<linearGradient id="paint0_linear" x1="0.105577" y1="-7.367e-07" x2="61.1414" y2="61.4467" gradientUnits="userSpaceOnUse">
<stop stop-color="#D40A7B"/>
<stop offset="0.759178" stop-color="#FE5D4C"/>
<stop offset="1" stop-color="#FDA712"/>
</linearGradient>
</defs>
</svg>
